<svg width="56" height="56" viewBox="0 0 56 56" fill="none" xmlns="http://www.w3.org/2000/svg">
<path d="M28 56C12.5356 56 0 43.4644 0 28C0 12.5356 12.5356 0 28 0C43.4644 0 56 12.5356 56 28C56 43.4644 43.4644 56 28 56ZM14.0364 45.5168C17.9999 48.6856 22.9255 50.4081 28 50.4C33.516 50.4 38.5644 48.4064 42.4676 45.1024C40.644 43.2313 38.4637 41.7449 36.0557 40.7311C33.6477 39.7172 31.0608 39.1966 28.448 39.2C25.7392 39.1969 23.0594 39.7568 20.5785 40.8442C18.0976 41.9316 15.8698 43.5228 14.0364 45.5168ZM10.1248 41.496C12.4781 38.9986 15.3179 37.0096 18.4692 35.6516C21.6205 34.2936 25.0165 33.5954 28.448 33.6C31.7566 33.5957 35.0335 34.245 38.0905 35.5107C41.1475 36.7763 43.9243 38.6334 46.2616 40.9752C48.6586 37.6015 50.0742 33.6298 50.3512 29.5006C50.6282 25.3713 49.7559 21.2461 47.831 17.5825C45.9061 13.9189 43.0039 10.8601 39.4463 8.74565C35.8888 6.63115 31.815 5.54355 27.6769 5.60351C23.5388 5.66346 19.4982 6.86864 16.0035 9.08532C12.5087 11.302 9.69629 14.4435 7.87834 18.1614C6.06039 21.8792 5.30794 26.028 5.70448 30.1475C6.10102 34.2669 7.63104 38.196 10.1248 41.4988V41.496ZM28 30.8C25.0296 30.8 22.1808 29.62 20.0804 27.5196C17.98 25.4192 16.8 22.5704 16.8 19.6C16.8 16.6296 17.98 13.7808 20.0804 11.6804C22.1808 9.58 25.0296 8.4 28 8.4C30.9704 8.4 33.8192 9.58 35.9196 11.6804C38.02 13.7808 39.2 16.6296 39.2 19.6C39.2 22.5704 38.02 25.4192 35.9196 27.5196C33.8192 29.62 30.9704 30.8 28 30.8ZM28 25.2C29.4852 25.2 30.9096 24.61 31.9598 23.5598C33.01 22.5096 33.6 21.0852 33.6 19.6C33.6 18.1148 33.01 16.6904 31.9598 15.6402C30.9096 14.59 29.4852 14 28 14C26.5148 14 25.0904 14.59 24.0402 15.6402C22.99 16.6904 22.4 18.1148 22.4 19.6C22.4 21.0852 22.99 22.5096 24.0402 23.5598C25.0904 24.61 26.5148 25.2 28 25.2Z" fill="#BDBDBD"/>
</svg>
