<svg width="130" height="130" viewBox="0 0 130 130" fill="none" xmlns="http://www.w3.org/2000/svg">
<mask id="path-1-inside-1_8016_33240" fill="white">
<path fill-rule="evenodd" clip-rule="evenodd" d="M106 41.5C106 64.4198 87.4198 83 64.5 83C59.4677 83 54.6446 82.1043 50.1815 80.4636C48.1319 75.5495 47 70.1569 47 64.5C47 41.5802 65.5802 23 88.5 23C93.5323 23 98.3554 23.8957 102.819 25.5364C104.868 30.4505 106 35.8431 106 41.5ZM64.5 81C60.0163 81 55.7108 80.2537 51.6986 78.88C49.9569 74.4262 49 69.5771 49 64.5C49 59.8562 49.8005 55.4035 51.2696 51.2696C55.4035 49.8005 59.8562 49 64.5 49C69.5771 49 74.4262 49.9569 78.88 51.6986C80.2537 55.7108 81 60.0163 81 64.5C81 69.4189 80.1018 74.1236 78.4621 78.4621C74.1236 80.1018 69.4189 81 64.5 81Z"/>
</mask>
<path fill-rule="evenodd" clip-rule="evenodd" d="M106 41.5C106 64.4198 87.4198 83 64.5 83C59.4677 83 54.6446 82.1043 50.1815 80.4636C48.1319 75.5495 47 70.1569 47 64.5C47 41.5802 65.5802 23 88.5 23C93.5323 23 98.3554 23.8957 102.819 25.5364C104.868 30.4505 106 35.8431 106 41.5ZM64.5 81C60.0163 81 55.7108 80.2537 51.6986 78.88C49.9569 74.4262 49 69.5771 49 64.5C49 59.8562 49.8005 55.4035 51.2696 51.2696C55.4035 49.8005 59.8562 49 64.5 49C69.5771 49 74.4262 49.9569 78.88 51.6986C80.2537 55.7108 81 60.0163 81 64.5C81 69.4189 80.1018 74.1236 78.4621 78.4621C74.1236 80.1018 69.4189 81 64.5 81Z" fill="#C0DB90"/>
<path d="M50.1815 80.4636L48.3356 81.2335L48.6718 82.0395L49.4914 82.3408L50.1815 80.4636ZM102.819 25.5364L104.664 24.7665L104.328 23.9605L103.509 23.6592L102.819 25.5364ZM51.6986 78.88L49.8359 79.6084L50.1736 80.4719L51.0507 80.7722L51.6986 78.88ZM51.2696 51.2696L50.5999 49.3851L49.7036 49.7036L49.3851 50.5999L51.2696 51.2696ZM78.88 51.6986L80.7722 51.0507L80.4719 50.1736L79.6084 49.8359L78.88 51.6986ZM78.4621 78.4621L79.1692 80.3329L80.0137 80.0137L80.3329 79.1692L78.4621 78.4621ZM64.5 85C88.5244 85 108 65.5244 108 41.5H104C104 63.3152 86.3152 81 64.5 81V85ZM49.4914 82.3408C54.1723 84.0615 59.2288 85 64.5 85V81C59.7066 81 55.1169 80.1471 50.8715 78.5865L49.4914 82.3408ZM45 64.5C45 70.4259 46.186 76.0798 48.3356 81.2335L52.0273 79.6938C50.0777 75.0192 49 69.888 49 64.5H45ZM88.5 21C64.4756 21 45 40.4756 45 64.5H49C49 42.6848 66.6848 25 88.5 25V21ZM103.509 23.6592C98.8277 21.9385 93.7712 21 88.5 21V25C93.2934 25 97.8831 25.8529 102.128 27.4135L103.509 23.6592ZM108 41.5C108 35.5741 106.814 29.9202 104.664 24.7665L100.973 26.3062C102.922 30.9808 104 36.112 104 41.5H108ZM51.0507 80.7722C55.2687 82.2163 59.793 83 64.5 83V79C60.2396 79 56.1529 78.2911 52.3464 76.9879L51.0507 80.7722ZM47 64.5C47 69.8303 48.0049 74.9262 49.8359 79.6084L53.5612 78.1516C51.9088 73.9262 51 69.3239 51 64.5H47ZM49.3851 50.5999C47.8406 54.9457 47 59.6248 47 64.5H51C51 60.0876 51.7604 55.8612 53.1542 51.9394L49.3851 50.5999ZM64.5 47C59.6248 47 54.9457 47.8406 50.5999 49.3851L51.9394 53.1542C55.8612 51.7604 60.0876 51 64.5 51V47ZM79.6084 49.8359C74.9262 48.0049 69.8303 47 64.5 47V51C69.3239 51 73.9262 51.9088 78.1516 53.5612L79.6084 49.8359ZM83 64.5C83 59.793 82.2163 55.2687 80.7722 51.0507L76.9879 52.3464C78.2911 56.1529 79 60.2396 79 64.5H83ZM80.3329 79.1692C82.0568 74.6082 83 69.6641 83 64.5H79C79 69.1736 78.1469 73.639 76.5913 77.755L80.3329 79.1692ZM64.5 83C69.6641 83 74.6082 82.0568 79.1692 80.3329L77.755 76.5913C73.639 78.1469 69.1736 79 64.5 79V83Z" fill="white" fill-opacity="0.6" mask="url(#path-1-inside-1_8016_33240)"/>
<path fill-rule="evenodd" clip-rule="evenodd" d="M88.5 106C111.42 106 130 87.4198 130 64.5C130 41.5802 111.42 23 88.5 23C65.5802 23 47 41.5802 47 64.5C47 87.4198 65.5802 106 88.5 106ZM64.5 81C60.0163 81 55.7108 80.2537 51.6986 78.88C49.9569 74.4262 49 69.5771 49 64.5C49 59.8562 49.8005 55.4035 51.2696 51.2696C55.4035 49.8005 59.8562 49 64.5 49C69.5771 49 74.4262 49.9569 78.88 51.6986C80.2537 55.7108 81 60.0163 81 64.5C81 69.4189 80.1018 74.1236 78.4621 78.4621C74.1236 80.1018 69.4189 81 64.5 81Z" fill="#29BDEC" fill-opacity="0.5"/>
<mask id="path-4-inside-2_8016_33240" fill="white">
<path fill-rule="evenodd" clip-rule="evenodd" d="M83 64.5C83 87.4198 64.4198 106 41.5 106C35.8431 106 30.4505 104.868 25.5364 102.819C23.8957 98.3554 23 93.5323 23 88.5C23 65.5802 41.5802 47 64.5 47C70.1569 47 75.5495 48.1319 80.4636 50.1815C82.1043 54.6446 83 59.4677 83 64.5ZM64.5 81C60.0163 81 55.7108 80.2537 51.6986 78.88C49.9569 74.4262 49 69.5771 49 64.5C49 59.8562 49.8005 55.4035 51.2696 51.2696C55.4035 49.8005 59.8562 49 64.5 49C69.5771 49 74.4262 49.9569 78.88 51.6986C80.2537 55.7108 81 60.0163 81 64.5C81 69.4189 80.1018 74.1236 78.4621 78.4621C74.1236 80.1018 69.4189 81 64.5 81Z"/>
</mask>
<path fill-rule="evenodd" clip-rule="evenodd" d="M83 64.5C83 87.4198 64.4198 106 41.5 106C35.8431 106 30.4505 104.868 25.5364 102.819C23.8957 98.3554 23 93.5323 23 88.5C23 65.5802 41.5802 47 64.5 47C70.1569 47 75.5495 48.1319 80.4636 50.1815C82.1043 54.6446 83 59.4677 83 64.5ZM64.5 81C60.0163 81 55.7108 80.2537 51.6986 78.88C49.9569 74.4262 49 69.5771 49 64.5C49 59.8562 49.8005 55.4035 51.2696 51.2696C55.4035 49.8005 59.8562 49 64.5 49C69.5771 49 74.4262 49.9569 78.88 51.6986C80.2537 55.7108 81 60.0163 81 64.5C81 69.4189 80.1018 74.1236 78.4621 78.4621C74.1236 80.1018 69.4189 81 64.5 81Z" fill="#F16F76"/>
<path d="M25.5364 102.819L23.6592 103.509L23.9605 104.328L24.7665 104.664L25.5364 102.819ZM80.4636 50.1815L82.3408 49.4914L82.0395 48.6718L81.2335 48.3356L80.4636 50.1815ZM51.6986 78.88L49.8359 79.6084L50.1736 80.4719L51.0507 80.7722L51.6986 78.88ZM51.2696 51.2696L50.5999 49.3851L49.7036 49.7036L49.3851 50.5999L51.2696 51.2696ZM78.88 51.6986L80.7722 51.0507L80.4719 50.1736L79.6084 49.8359L78.88 51.6986ZM78.4621 78.4621L79.1692 80.3329L80.0137 80.0137L80.3329 79.1692L78.4621 78.4621ZM41.5 108C65.5244 108 85 88.5244 85 64.5H81C81 86.3152 63.3152 104 41.5 104V108ZM24.7665 104.664C29.9202 106.814 35.5741 108 41.5 108V104C36.112 104 30.9808 102.922 26.3062 100.973L24.7665 104.664ZM21 88.5C21 93.7712 21.9385 98.8277 23.6592 103.509L27.4135 102.128C25.8529 97.8831 25 93.2934 25 88.5H21ZM64.5 45C40.4756 45 21 64.4756 21 88.5H25C25 66.6848 42.6848 49 64.5 49V45ZM81.2335 48.3356C76.0798 46.186 70.4259 45 64.5 45V49C69.888 49 75.0192 50.0777 79.6938 52.0273L81.2335 48.3356ZM85 64.5C85 59.2288 84.0615 54.1723 82.3408 49.4914L78.5865 50.8715C80.1471 55.1169 81 59.7066 81 64.5H85ZM51.0507 80.7722C55.2687 82.2163 59.793 83 64.5 83V79C60.2396 79 56.1529 78.2911 52.3464 76.9879L51.0507 80.7722ZM47 64.5C47 69.8303 48.0049 74.9262 49.8359 79.6084L53.5612 78.1516C51.9088 73.9262 51 69.3239 51 64.5H47ZM49.3851 50.5999C47.8406 54.9457 47 59.6248 47 64.5H51C51 60.0876 51.7604 55.8612 53.1542 51.9394L49.3851 50.5999ZM64.5 47C59.6248 47 54.9457 47.8406 50.5999 49.3851L51.9394 53.1542C55.8612 51.7604 60.0876 51 64.5 51V47ZM79.6084 49.8359C74.9262 48.0049 69.8303 47 64.5 47V51C69.3239 51 73.9262 51.9088 78.1516 53.5612L79.6084 49.8359ZM83 64.5C83 59.793 82.2163 55.2687 80.7722 51.0507L76.9879 52.3464C78.2911 56.1529 79 60.2396 79 64.5H83ZM80.3329 79.1692C82.0568 74.6082 83 69.6641 83 64.5H79C79 69.1736 78.1469 73.639 76.5913 77.755L80.3329 79.1692ZM64.5 83C69.6641 83 74.6082 82.0568 79.1692 80.3329L77.755 76.5913C73.639 78.1469 69.1736 79 64.5 79V83Z" fill="white" fill-opacity="0.6" mask="url(#path-4-inside-2_8016_33240)"/>
<path fill-rule="evenodd" clip-rule="evenodd" d="M41.5 23C36.0181 23 30.7844 24.0629 25.9939 25.9939C24.0629 30.7844 23 36.0181 23 41.5C23 64.4198 41.5802 83 64.5 83C69.9819 83 75.2156 81.9371 80.0061 80.0061C81.9371 75.2156 83 69.9819 83 64.5C83 41.5802 64.4198 23 41.5 23ZM64.5 81C60.0163 81 55.7108 80.2537 51.6986 78.88C49.9569 74.4262 49 69.5771 49 64.5C49 59.8562 49.8005 55.4035 51.2696 51.2696C55.4035 49.8005 59.8562 49 64.5 49C69.5771 49 74.4262 49.9569 78.88 51.6986C80.2537 55.7108 81 60.0163 81 64.5C81 69.4189 80.1018 74.1236 78.4621 78.4621C74.1236 80.1018 69.4189 81 64.5 81Z" fill="#F1C75F"/>
<path fill-rule="evenodd" clip-rule="evenodd" d="M51.6983 78.8794C51.6984 78.8796 51.6985 78.8798 51.6986 78.88C55.4058 80.1493 59.3633 80.8829 63.4805 80.9871C63.8193 80.9957 64.1591 81 64.5 81C69.4188 81 74.1236 80.1018 78.4621 78.4621C78.5788 78.1533 78.6918 77.8426 78.8009 77.5301C80.2251 73.4527 81 69.0687 81 64.5C81 63.9594 80.9891 63.4214 80.9676 62.8861C80.8109 58.9822 80.0881 55.227 78.88 51.6986C78.8798 51.6985 78.8796 51.6984 78.8794 51.6983C74.4257 49.9568 69.5769 49 64.5 49C59.8562 49 55.4035 49.8005 51.2696 51.2696C49.8005 55.4035 49 59.8562 49 64.5C49 69.5769 49.9568 74.4257 51.6983 78.8794ZM77.9376 49.2238C73.723 47.7822 69.2027 47 64.5 47C59.6248 47 54.9457 47.8406 50.5999 49.3851L49.7036 49.7036L49.3851 50.5999C47.8406 54.9457 47 59.6248 47 64.5C47 69.2027 47.7822 73.723 49.2238 77.9376C34.994 71.9648 25 57.8995 25 41.5C25 36.5811 25.8982 31.8764 27.5379 27.5379C31.8764 25.8982 36.5811 25 41.5 25C57.8995 25 71.9648 34.994 77.9376 49.2238ZM80.4589 50.1685C80.5658 50.459 80.6695 50.751 80.77 51.0444C80.7708 51.0465 80.7715 51.0486 80.7722 51.0507C82.2163 55.2687 83 59.793 83 64.5C83 69.6641 82.0568 74.6082 80.3329 79.1692C80.3306 79.1755 80.3282 79.1817 80.3258 79.188C80.2221 79.4621 80.1155 79.7348 80.0061 80.0061C79.7332 80.1162 79.4588 80.2234 79.1831 80.3277C79.1784 80.3294 79.1738 80.3312 79.1692 80.3329C74.6082 82.0568 69.6641 83 64.5 83C59.793 83 55.2687 82.2163 51.0507 80.7722C51.0459 80.7705 51.041 80.7688 51.0361 80.7672C50.7454 80.6675 50.4562 80.5648 50.1685 80.4589C34.3108 74.6236 23 59.3827 23 41.5C23 36.0181 24.0629 30.7844 25.9939 25.9939C30.7844 24.0629 36.0181 23 41.5 23C59.3827 23 74.6236 34.3108 80.4589 50.1685Z" fill="white" fill-opacity="0.6"/>
<path fill-rule="evenodd" clip-rule="evenodd" d="M64.5 130C87.4198 130 106 111.42 106 88.5C106 65.5802 87.4198 47 64.5 47C41.5802 47 23 65.5802 23 88.5C23 111.42 41.5802 130 64.5 130ZM64.5 81C60.0163 81 55.7108 80.2537 51.6986 78.88C49.9569 74.4262 49 69.5771 49 64.5C49 59.8562 49.8005 55.4035 51.2696 51.2696C55.4035 49.8005 59.8562 49 64.5 49C69.5771 49 74.4262 49.9569 78.88 51.6986C80.2537 55.7108 81 60.0163 81 64.5C81 69.4189 80.1018 74.1236 78.4621 78.4621C74.1236 80.1018 69.4189 81 64.5 81Z" fill="#EC2958" fill-opacity="0.5"/>
<path fill-rule="evenodd" clip-rule="evenodd" d="M106 41.5C106 64.4198 87.4198 83 64.5 83C59.4677 83 54.6446 82.1043 50.1815 80.4636C48.1319 75.5495 47 70.1569 47 64.5C47 41.5802 65.5802 23 88.5 23C93.5323 23 98.3554 23.8957 102.819 25.5364C104.868 30.4505 106 35.8431 106 41.5ZM64.5 81C60.0163 81 55.7108 80.2537 51.6986 78.88C49.9569 74.4262 49 69.5771 49 64.5C49 59.8562 49.8005 55.4035 51.2696 51.2696C55.4035 49.8005 59.8562 49 64.5 49C69.5771 49 74.4262 49.9569 78.88 51.6986C80.2537 55.7108 81 60.0163 81 64.5C81 69.4189 80.1018 74.1236 78.4621 78.4621C74.1236 80.1018 69.4189 81 64.5 81Z" fill="#EC6B29" fill-opacity="0.5"/>
<path fill-rule="evenodd" clip-rule="evenodd" d="M49.839 79.6162C49.9501 79.9002 50.0643 80.1827 50.1815 80.4636C50.4665 80.5684 50.753 80.6702 51.0409 80.7688C51.0442 80.7699 51.0475 80.7711 51.0507 80.7722C55.2687 82.2163 59.793 83 64.5 83C69.6641 83 74.6082 82.0568 79.1692 80.3329C79.1742 80.3311 79.1792 80.3292 79.1842 80.3273C79.4637 80.2215 79.7419 80.1128 80.0185 80.0012C95.2507 73.8557 106 58.9332 106 41.5C106 35.8431 104.868 30.4505 102.819 25.5364C98.3554 23.8957 93.5323 23 88.5 23C70.7944 23 55.6785 34.0879 49.7172 49.6988C49.6043 49.9946 49.4946 50.292 49.3883 50.591C49.3872 50.5939 49.3862 50.5969 49.3851 50.5999C47.8406 54.9457 47 59.6248 47 64.5C47 69.8303 48.0049 74.9262 49.8359 79.6084C49.837 79.611 49.838 79.6136 49.839 79.6162ZM51.2703 51.2694C51.2701 51.2695 51.2698 51.2695 51.2696 51.2696C49.9084 55.1 49.1211 59.2042 49.0129 63.4805C49.0043 63.8193 49 64.1591 49 64.5C49 69.5771 49.9569 74.4262 51.6986 78.88C51.9576 78.9687 52.2179 79.0548 52.4794 79.1382C56.2675 80.347 60.3058 81 64.5 81C65.0413 81 65.58 80.9891 66.1159 80.9675C70.4499 80.7933 74.601 79.9214 78.4621 78.4621C78.4622 78.4619 78.4623 78.4617 78.4624 78.4614C80.1019 74.1231 81 69.4186 81 64.5C81 60.0163 80.2537 55.7108 78.88 51.6986C74.4262 49.9569 69.5771 49 64.5 49C59.8564 49 55.4039 49.8004 51.2703 51.2694ZM80.9484 77.4229C82.28 73.3557 83 69.0118 83 64.5C83 59.793 82.2163 55.2687 80.7722 51.0507L80.4719 50.1736L79.6084 49.8359C74.9262 48.0049 69.8303 47 64.5 47C60.2263 47 56.1033 47.646 52.2234 48.8458C58.2852 34.8173 72.2461 25 88.5 25C92.9837 25 97.2892 25.7463 101.301 27.12C103.043 31.5738 104 36.4229 104 41.5C104 57.4454 94.5518 71.184 80.9484 77.4229Z" fill="white" fill-opacity="0.6"/>
<path fill-rule="evenodd" clip-rule="evenodd" d="M64.5 83C87.4198 83 106 64.4198 106 41.5C106 18.5802 87.4198 0 64.5 0C41.5802 0 23 18.5802 23 41.5C23 64.4198 41.5802 83 64.5 83ZM64.5 81C60.0163 81 55.7108 80.2537 51.6986 78.88C49.9569 74.4262 49 69.5771 49 64.5C49 59.8562 49.8005 55.4035 51.2696 51.2696C55.4035 49.8005 59.8562 49 64.5 49C69.5771 49 74.4262 49.9569 78.88 51.6986C80.2537 55.7108 81 60.0163 81 64.5C81 69.4189 80.1018 74.1236 78.4621 78.4621C74.1236 80.1018 69.4189 81 64.5 81Z" fill="#ECD929" fill-opacity="0.5"/>
<mask id="path-12-inside-3_8016_33240" fill="white">
<path fill-rule="evenodd" clip-rule="evenodd" d="M83 64.5C83 69.9819 81.9371 75.2156 80.0061 80.0061C75.2156 81.9371 69.9819 83 64.5 83C50.304 83 37.7727 75.8721 30.29 65C37.7727 54.1279 50.304 47 64.5 47C70.1569 47 75.5495 48.1319 80.4636 50.1815C82.1043 54.6446 83 59.4677 83 64.5ZM64.5 81C60.0163 81 55.7108 80.2537 51.6986 78.88C49.9569 74.4262 49 69.5771 49 64.5C49 59.8562 49.8005 55.4035 51.2696 51.2696C55.4035 49.8005 59.8562 49 64.5 49C69.5771 49 74.4262 49.9569 78.88 51.6986C80.2537 55.7108 81 60.0163 81 64.5C81 69.4189 80.1018 74.1236 78.4621 78.4621C74.1236 80.1018 69.4189 81 64.5 81Z"/>
</mask>
<path fill-rule="evenodd" clip-rule="evenodd" d="M83 64.5C83 69.9819 81.9371 75.2156 80.0061 80.0061C75.2156 81.9371 69.9819 83 64.5 83C50.304 83 37.7727 75.8721 30.29 65C37.7727 54.1279 50.304 47 64.5 47C70.1569 47 75.5495 48.1319 80.4636 50.1815C82.1043 54.6446 83 59.4677 83 64.5ZM64.5 81C60.0163 81 55.7108 80.2537 51.6986 78.88C49.9569 74.4262 49 69.5771 49 64.5C49 59.8562 49.8005 55.4035 51.2696 51.2696C55.4035 49.8005 59.8562 49 64.5 49C69.5771 49 74.4262 49.9569 78.88 51.6986C80.2537 55.7108 81 60.0163 81 64.5C81 69.4189 80.1018 74.1236 78.4621 78.4621C74.1236 80.1018 69.4189 81 64.5 81Z" fill="#EC6B29" fill-opacity="0.5"/>
<path d="M80.0061 80.0061L80.7538 81.8611L81.543 81.543L81.8611 80.7538L80.0061 80.0061ZM30.29 65L28.6425 63.8661L27.8621 65L28.6425 66.1339L30.29 65ZM80.4636 50.1815L82.3408 49.4914L82.0395 48.6718L81.2335 48.3356L80.4636 50.1815ZM51.6986 78.88L49.8359 79.6084L50.1736 80.4719L51.0507 80.7722L51.6986 78.88ZM51.2696 51.2696L50.5999 49.3851L49.7036 49.7036L49.3851 50.5999L51.2696 51.2696ZM78.88 51.6986L80.7722 51.0507L80.4719 50.1736L79.6084 49.8359L78.88 51.6986ZM78.4621 78.4621L79.1692 80.3329L80.0137 80.0137L80.3329 79.1692L78.4621 78.4621ZM81.8611 80.7538C83.8862 75.7296 85 70.2424 85 64.5H81C81 69.7214 79.9879 74.7015 78.1512 79.2585L81.8611 80.7538ZM64.5 85C70.2424 85 75.7296 83.8862 80.7538 81.8611L79.2584 78.1512C74.7015 79.9879 69.7214 81 64.5 81V85ZM28.6425 66.1339C36.4824 77.525 49.618 85 64.5 85V81C50.9899 81 39.063 74.2192 31.9375 63.8661L28.6425 66.1339ZM64.5 45C49.618 45 36.4824 52.475 28.6425 63.8661L31.9375 66.1339C39.063 55.7808 50.9899 49 64.5 49V45ZM81.2335 48.3356C76.0798 46.186 70.4259 45 64.5 45V49C69.888 49 75.0192 50.0777 79.6938 52.0273L81.2335 48.3356ZM85 64.5C85 59.2288 84.0615 54.1723 82.3408 49.4914L78.5865 50.8715C80.1471 55.1169 81 59.7066 81 64.5H85ZM51.0507 80.7722C55.2687 82.2163 59.793 83 64.5 83V79C60.2396 79 56.1529 78.2911 52.3464 76.9879L51.0507 80.7722ZM47 64.5C47 69.8303 48.0049 74.9262 49.8359 79.6084L53.5612 78.1516C51.9088 73.9262 51 69.3239 51 64.5H47ZM49.3851 50.5999C47.8406 54.9457 47 59.6248 47 64.5H51C51 60.0876 51.7604 55.8612 53.1542 51.9394L49.3851 50.5999ZM64.5 47C59.6248 47 54.9457 47.8406 50.5999 49.3851L51.9394 53.1542C55.8612 51.7604 60.0876 51 64.5 51V47ZM79.6084 49.8359C74.9262 48.0049 69.8303 47 64.5 47V51C69.3239 51 73.9262 51.9088 78.1516 53.5612L79.6084 49.8359ZM83 64.5C83 59.793 82.2163 55.2687 80.7722 51.0507L76.9879 52.3464C78.2911 56.1529 79 60.2396 79 64.5H83ZM80.3329 79.1692C82.0568 74.6082 83 69.6641 83 64.5H79C79 69.1736 78.1469 73.639 76.5913 77.755L80.3329 79.1692ZM64.5 83C69.6641 83 74.6082 82.0568 79.1692 80.3329L77.755 76.5913C73.639 78.1469 69.1736 79 64.5 79V83Z" fill="white" fill-opacity="0.6" mask="url(#path-12-inside-3_8016_33240)"/>
<mask id="path-14-inside-4_8016_33240" fill="white">
<path fill-rule="evenodd" clip-rule="evenodd" d="M83 64.5C83 69.9819 81.9371 75.2156 80.0061 80.0061C75.2156 81.9371 69.9819 83 64.5 83C50.304 83 37.7727 75.8721 30.29 65C37.7727 54.1279 50.304 47 64.5 47C70.1569 47 75.5495 48.1319 80.4636 50.1815C82.1043 54.6446 83 59.4677 83 64.5ZM64.5 81C60.0163 81 55.7108 80.2537 51.6986 78.88C49.9569 74.4262 49 69.5771 49 64.5C49 59.8562 49.8005 55.4035 51.2696 51.2696C55.4035 49.8005 59.8562 49 64.5 49C69.5771 49 74.4262 49.9569 78.88 51.6986C80.2537 55.7108 81 60.0163 81 64.5C81 69.4189 80.1018 74.1236 78.4621 78.4621C74.1236 80.1018 69.4189 81 64.5 81Z"/>
</mask>
<path fill-rule="evenodd" clip-rule="evenodd" d="M83 64.5C83 69.9819 81.9371 75.2156 80.0061 80.0061C75.2156 81.9371 69.9819 83 64.5 83C50.304 83 37.7727 75.8721 30.29 65C37.7727 54.1279 50.304 47 64.5 47C70.1569 47 75.5495 48.1319 80.4636 50.1815C82.1043 54.6446 83 59.4677 83 64.5ZM64.5 81C60.0163 81 55.7108 80.2537 51.6986 78.88C49.9569 74.4262 49 69.5771 49 64.5C49 59.8562 49.8005 55.4035 51.2696 51.2696C55.4035 49.8005 59.8562 49 64.5 49C69.5771 49 74.4262 49.9569 78.88 51.6986C80.2537 55.7108 81 60.0163 81 64.5C81 69.4189 80.1018 74.1236 78.4621 78.4621C74.1236 80.1018 69.4189 81 64.5 81Z" fill="#EC6B29" fill-opacity="0.5"/>
<path d="M80.0061 80.0061L80.7538 81.8611L81.543 81.543L81.8611 80.7538L80.0061 80.0061ZM30.29 65L28.6425 63.8661L27.8621 65L28.6425 66.1339L30.29 65ZM80.4636 50.1815L82.3408 49.4914L82.0395 48.6718L81.2335 48.3356L80.4636 50.1815ZM51.6986 78.88L49.8359 79.6084L50.1736 80.4719L51.0507 80.7722L51.6986 78.88ZM51.2696 51.2696L50.5999 49.3851L49.7036 49.7036L49.3851 50.5999L51.2696 51.2696ZM78.88 51.6986L80.7722 51.0507L80.4719 50.1736L79.6084 49.8359L78.88 51.6986ZM78.4621 78.4621L79.1692 80.3329L80.0137 80.0137L80.3329 79.1692L78.4621 78.4621ZM81.8611 80.7538C83.8862 75.7296 85 70.2424 85 64.5H81C81 69.7214 79.9879 74.7015 78.1512 79.2585L81.8611 80.7538ZM64.5 85C70.2424 85 75.7296 83.8862 80.7538 81.8611L79.2584 78.1512C74.7015 79.9879 69.7214 81 64.5 81V85ZM28.6425 66.1339C36.4824 77.525 49.618 85 64.5 85V81C50.9899 81 39.063 74.2192 31.9375 63.8661L28.6425 66.1339ZM64.5 45C49.618 45 36.4824 52.475 28.6425 63.8661L31.9375 66.1339C39.063 55.7808 50.9899 49 64.5 49V45ZM81.2335 48.3356C76.0798 46.186 70.4259 45 64.5 45V49C69.888 49 75.0192 50.0777 79.6938 52.0273L81.2335 48.3356ZM85 64.5C85 59.2288 84.0615 54.1723 82.3408 49.4914L78.5865 50.8715C80.1471 55.1169 81 59.7066 81 64.5H85ZM51.0507 80.7722C55.2687 82.2163 59.793 83 64.5 83V79C60.2396 79 56.1529 78.2911 52.3464 76.9879L51.0507 80.7722ZM47 64.5C47 69.8303 48.0049 74.9262 49.8359 79.6084L53.5612 78.1516C51.9088 73.9262 51 69.3239 51 64.5H47ZM49.3851 50.5999C47.8406 54.9457 47 59.6248 47 64.5H51C51 60.0876 51.7604 55.8612 53.1542 51.9394L49.3851 50.5999ZM64.5 47C59.6248 47 54.9457 47.8406 50.5999 49.3851L51.9394 53.1542C55.8612 51.7604 60.0876 51 64.5 51V47ZM79.6084 49.8359C74.9262 48.0049 69.8303 47 64.5 47V51C69.3239 51 73.9262 51.9088 78.1516 53.5612L79.6084 49.8359ZM83 64.5C83 59.793 82.2163 55.2687 80.7722 51.0507L76.9879 52.3464C78.2911 56.1529 79 60.2396 79 64.5H83ZM80.3329 79.1692C82.0568 74.6082 83 69.6641 83 64.5H79C79 69.1736 78.1469 73.639 76.5913 77.755L80.3329 79.1692ZM64.5 83C69.6641 83 74.6082 82.0568 79.1692 80.3329L77.755 76.5913C73.639 78.1469 69.1736 79 64.5 79V83Z" fill="white" fill-opacity="0.6" mask="url(#path-14-inside-4_8016_33240)"/>
<mask id="path-16-inside-5_8016_33240" fill="white">
<path fill-rule="evenodd" clip-rule="evenodd" d="M64.5 83C78.696 83 91.2273 75.8721 98.71 65C91.2273 54.1279 78.696 47 64.5 47C59.2908 47 54.3058 47.9598 49.7121 49.7121C47.9598 54.3058 47 59.2908 47 64.5C47 70.1569 48.1319 75.5495 50.1815 80.4636C54.6446 82.1043 59.4677 83 64.5 83ZM64.5 81C60.0163 81 55.7108 80.2537 51.6986 78.88C49.9569 74.4262 49 69.5771 49 64.5C49 59.8562 49.8005 55.4035 51.2696 51.2696C55.4035 49.8005 59.8562 49 64.5 49C69.5771 49 74.4262 49.9569 78.88 51.6986C80.2537 55.7108 81 60.0163 81 64.5C81 69.4189 80.1018 74.1236 78.4621 78.4621C74.1236 80.1018 69.4189 81 64.5 81Z"/>
</mask>
<path fill-rule="evenodd" clip-rule="evenodd" d="M64.5 83C78.696 83 91.2273 75.8721 98.71 65C91.2273 54.1279 78.696 47 64.5 47C59.2908 47 54.3058 47.9598 49.7121 49.7121C47.9598 54.3058 47 59.2908 47 64.5C47 70.1569 48.1319 75.5495 50.1815 80.4636C54.6446 82.1043 59.4677 83 64.5 83ZM64.5 81C60.0163 81 55.7108 80.2537 51.6986 78.88C49.9569 74.4262 49 69.5771 49 64.5C49 59.8562 49.8005 55.4035 51.2696 51.2696C55.4035 49.8005 59.8562 49 64.5 49C69.5771 49 74.4262 49.9569 78.88 51.6986C80.2537 55.7108 81 60.0163 81 64.5C81 69.4189 80.1018 74.1236 78.4621 78.4621C74.1236 80.1018 69.4189 81 64.5 81Z" fill="#EC6B29" fill-opacity="0.5"/>
<path d="M98.71 65L100.357 66.1339L101.138 65L100.357 63.8661L98.71 65ZM49.7121 49.7121L48.9993 47.8435L48.1626 48.1626L47.8435 48.9993L49.7121 49.7121ZM50.1815 80.4636L48.3356 81.2335L48.6718 82.0395L49.4914 82.3408L50.1815 80.4636ZM51.6986 78.88L49.8359 79.6084L50.1736 80.4719L51.0507 80.7722L51.6986 78.88ZM51.2696 51.2696L50.5999 49.3851L49.7036 49.7036L49.3851 50.5999L51.2696 51.2696ZM78.88 51.6986L80.7722 51.0507L80.4719 50.1736L79.6084 49.8359L78.88 51.6986ZM78.4621 78.4621L79.1692 80.3329L80.0137 80.0137L80.3329 79.1692L78.4621 78.4621ZM97.0624 63.8661C89.937 74.2192 78.0101 81 64.5 81V85C79.382 85 92.5176 77.525 100.357 66.1339L97.0624 63.8661ZM64.5 49C78.0101 49 89.937 55.7808 97.0624 66.1339L100.357 63.8661C92.5176 52.475 79.382 45 64.5 45V49ZM50.425 51.5808C54.7946 49.9139 59.5382 49 64.5 49V45C59.0434 45 53.817 46.0056 48.9993 47.8435L50.425 51.5808ZM49 64.5C49 59.5382 49.9139 54.7946 51.5808 50.425L47.8435 48.9993C46.0056 53.817 45 59.0434 45 64.5H49ZM52.0273 79.6938C50.0777 75.0192 49 69.888 49 64.5H45C45 70.4259 46.186 76.0798 48.3356 81.2335L52.0273 79.6938ZM64.5 81C59.7066 81 55.1169 80.1471 50.8715 78.5865L49.4914 82.3408C54.1723 84.0615 59.2288 85 64.5 85V81ZM51.0507 80.7722C55.2687 82.2163 59.793 83 64.5 83V79C60.2396 79 56.1529 78.2911 52.3464 76.9879L51.0507 80.7722ZM47 64.5C47 69.8303 48.0049 74.9262 49.8359 79.6084L53.5612 78.1516C51.9088 73.9262 51 69.3239 51 64.5H47ZM49.3851 50.5999C47.8406 54.9457 47 59.6248 47 64.5H51C51 60.0876 51.7604 55.8612 53.1542 51.9394L49.3851 50.5999ZM64.5 47C59.6248 47 54.9457 47.8406 50.5999 49.3851L51.9394 53.1542C55.8612 51.7604 60.0876 51 64.5 51V47ZM79.6084 49.8359C74.9262 48.0049 69.8303 47 64.5 47V51C69.3239 51 73.9262 51.9088 78.1516 53.5612L79.6084 49.8359ZM83 64.5C83 59.793 82.2163 55.2687 80.7722 51.0507L76.9879 52.3464C78.2911 56.1529 79 60.2396 79 64.5H83ZM80.3329 79.1692C82.0568 74.6082 83 69.6641 83 64.5H79C79 69.1736 78.1469 73.639 76.5913 77.755L80.3329 79.1692ZM64.5 83C69.6641 83 74.6082 82.0568 79.1692 80.3329L77.755 76.5913C73.639 78.1469 69.1736 79 64.5 79V83Z" fill="white" fill-opacity="0.6" mask="url(#path-16-inside-5_8016_33240)"/>
<path fill-rule="evenodd" clip-rule="evenodd" d="M41.5 106C64.4198 106 83 87.4198 83 64.5C83 41.5802 64.4198 23 41.5 23C18.5802 23 0 41.5802 0 64.5C0 87.4198 18.5802 106 41.5 106ZM64.5 81C60.0163 81 55.7108 80.2537 51.6986 78.88C49.9569 74.4262 49 69.5771 49 64.5C49 59.8562 49.8005 55.4035 51.2696 51.2696C55.4035 49.8005 59.8562 49 64.5 49C69.5771 49 74.4262 49.9569 78.88 51.6986C80.2537 55.7108 81 60.0163 81 64.5C81 69.4189 80.1018 74.1236 78.4621 78.4621C74.1236 80.1018 69.4189 81 64.5 81Z" fill="#EC6B29" fill-opacity="0.5"/>
<mask id="path-19-inside-6_8016_33240" fill="white">
<path fill-rule="evenodd" clip-rule="evenodd" d="M64.5 47C59.2908 47 54.3058 47.9598 49.7121 49.7121C47.9598 54.3058 47 59.2908 47 64.5C47 87.4198 65.5802 106 88.5 106C93.7092 106 98.6942 105.04 103.288 103.288C105.04 98.6942 106 93.7092 106 88.5C106 65.5802 87.4198 47 64.5 47ZM64.5 81C60.0163 81 55.7108 80.2537 51.6986 78.88C49.9569 74.4262 49 69.5771 49 64.5C49 59.8562 49.8005 55.4035 51.2696 51.2696C55.4035 49.8005 59.8562 49 64.5 49C69.5771 49 74.4262 49.9569 78.88 51.6986C80.2537 55.7108 81 60.0163 81 64.5C81 69.4189 80.1018 74.1236 78.4621 78.4621C74.1236 80.1018 69.4189 81 64.5 81Z"/>
</mask>
<path fill-rule="evenodd" clip-rule="evenodd" d="M64.5 47C59.2908 47 54.3058 47.9598 49.7121 49.7121C47.9598 54.3058 47 59.2908 47 64.5C47 87.4198 65.5802 106 88.5 106C93.7092 106 98.6942 105.04 103.288 103.288C105.04 98.6942 106 93.7092 106 88.5C106 65.5802 87.4198 47 64.5 47ZM64.5 81C60.0163 81 55.7108 80.2537 51.6986 78.88C49.9569 74.4262 49 69.5771 49 64.5C49 59.8562 49.8005 55.4035 51.2696 51.2696C55.4035 49.8005 59.8562 49 64.5 49C69.5771 49 74.4262 49.9569 78.88 51.6986C80.2537 55.7108 81 60.0163 81 64.5C81 69.4189 80.1018 74.1236 78.4621 78.4621C74.1236 80.1018 69.4189 81 64.5 81Z" fill="#C083A7"/>
<path d="M49.7121 49.7121L48.9993 47.8435L48.1626 48.1626L47.8435 48.9993L49.7121 49.7121ZM103.288 103.288L104.001 105.157L104.837 104.837L105.157 104.001L103.288 103.288ZM51.6986 78.88L49.8359 79.6084L50.1736 80.4719L51.0507 80.7722L51.6986 78.88ZM51.2696 51.2696L50.5999 49.3851L49.7036 49.7036L49.3851 50.5999L51.2696 51.2696ZM78.88 51.6986L80.7722 51.0507L80.4719 50.1736L79.6084 49.8359L78.88 51.6986ZM78.4621 78.4621L79.1692 80.3329L80.0137 80.0137L80.3329 79.1692L78.4621 78.4621ZM50.425 51.5808C54.7946 49.9139 59.5382 49 64.5 49V45C59.0434 45 53.817 46.0056 48.9993 47.8435L50.425 51.5808ZM49 64.5C49 59.5382 49.9139 54.7946 51.5808 50.425L47.8435 48.9993C46.0056 53.817 45 59.0434 45 64.5H49ZM88.5 104C66.6848 104 49 86.3152 49 64.5H45C45 88.5244 64.4756 108 88.5 108V104ZM102.575 101.419C98.2054 103.086 93.4618 104 88.5 104V108C93.9566 108 99.183 106.994 104.001 105.157L102.575 101.419ZM104 88.5C104 93.4618 103.086 98.2055 101.419 102.575L105.157 104.001C106.994 99.183 108 93.9566 108 88.5H104ZM64.5 49C86.3152 49 104 66.6848 104 88.5H108C108 64.4756 88.5244 45 64.5 45V49ZM51.0507 80.7722C55.2687 82.2163 59.793 83 64.5 83V79C60.2396 79 56.1529 78.2911 52.3464 76.9879L51.0507 80.7722ZM47 64.5C47 69.8303 48.0049 74.9262 49.8359 79.6084L53.5612 78.1516C51.9088 73.9262 51 69.3239 51 64.5H47ZM49.3851 50.5999C47.8406 54.9457 47 59.6248 47 64.5H51C51 60.0876 51.7604 55.8612 53.1542 51.9394L49.3851 50.5999ZM64.5 47C59.6248 47 54.9457 47.8406 50.5999 49.3851L51.9394 53.1542C55.8612 51.7604 60.0876 51 64.5 51V47ZM79.6084 49.8359C74.9262 48.0049 69.8303 47 64.5 47V51C69.3239 51 73.9262 51.9088 78.1516 53.5612L79.6084 49.8359ZM83 64.5C83 59.793 82.2163 55.2687 80.7722 51.0507L76.9879 52.3464C78.2911 56.1529 79 60.2396 79 64.5H83ZM80.3329 79.1692C82.0568 74.6082 83 69.6641 83 64.5H79C79 69.1736 78.1469 73.639 76.5913 77.755L80.3329 79.1692ZM64.5 83C69.6641 83 74.6082 82.0568 79.1692 80.3329L77.755 76.5913C73.639 78.1469 69.1736 79 64.5 79V83Z" fill="white" fill-opacity="0.6" mask="url(#path-19-inside-6_8016_33240)"/>
<mask id="path-21-inside-7_8016_33240" fill="white">
<path fill-rule="evenodd" clip-rule="evenodd" d="M47 64.5C47 59.2908 47.9598 54.3058 49.7121 49.7121C49.8845 49.6464 50.0574 49.5817 50.2309 49.5182C54.6802 47.8891 59.4863 47 64.5 47C70.1569 47 75.5495 48.1319 80.4636 50.1815C82.1043 54.6446 83 59.4677 83 64.5C83 78.696 75.8721 91.2273 65 98.71C54.1279 91.2273 47 78.696 47 64.5ZM64.5 81C60.0163 81 55.7108 80.2537 51.6986 78.88C49.9569 74.4262 49 69.5771 49 64.5C49 59.8562 49.8005 55.4035 51.2696 51.2696C55.4035 49.8005 59.8562 49 64.5 49C69.5771 49 74.4262 49.9569 78.88 51.6986C80.2537 55.7108 81 60.0163 81 64.5C81 69.4189 80.1018 74.1236 78.4621 78.4621C74.1236 80.1018 69.4189 81 64.5 81Z"/>
</mask>
<path fill-rule="evenodd" clip-rule="evenodd" d="M47 64.5C47 59.2908 47.9598 54.3058 49.7121 49.7121C49.8845 49.6464 50.0574 49.5817 50.2309 49.5182C54.6802 47.8891 59.4863 47 64.5 47C70.1569 47 75.5495 48.1319 80.4636 50.1815C82.1043 54.6446 83 59.4677 83 64.5C83 78.696 75.8721 91.2273 65 98.71C54.1279 91.2273 47 78.696 47 64.5ZM64.5 81C60.0163 81 55.7108 80.2537 51.6986 78.88C49.9569 74.4262 49 69.5771 49 64.5C49 59.8562 49.8005 55.4035 51.2696 51.2696C55.4035 49.8005 59.8562 49 64.5 49C69.5771 49 74.4262 49.9569 78.88 51.6986C80.2537 55.7108 81 60.0163 81 64.5C81 69.4189 80.1018 74.1236 78.4621 78.4621C74.1236 80.1018 69.4189 81 64.5 81Z" fill="#EC6B29" fill-opacity="0.5"/>
<path d="M49.7121 49.7121L48.9993 47.8435L48.1626 48.1626L47.8435 48.9993L49.7121 49.7121ZM50.2309 49.5182L49.5433 47.6401L49.5433 47.6401L50.2309 49.5182ZM80.4636 50.1815L82.3408 49.4914L82.0395 48.6718L81.2335 48.3356L80.4636 50.1815ZM65 98.71L63.8661 100.357L65 101.138L66.1339 100.357L65 98.71ZM51.6986 78.88L49.8359 79.6084L50.1736 80.4719L51.0507 80.7722L51.6986 78.88ZM51.2696 51.2696L50.5999 49.3851L49.7036 49.7036L49.3851 50.5999L51.2696 51.2696ZM78.88 51.6986L80.7722 51.0507L80.4719 50.1736L79.6084 49.8359L78.88 51.6986ZM78.4621 78.4621L79.1692 80.3329L80.0137 80.0137L80.3329 79.1692L78.4621 78.4621ZM47.8435 48.9993C46.0056 53.817 45 59.0434 45 64.5H49C49 59.5382 49.9139 54.7946 51.5808 50.425L47.8435 48.9993ZM49.5433 47.6401C49.3614 47.7067 49.18 47.7745 48.9993 47.8435L50.425 51.5808C50.589 51.5182 50.7535 51.4567 50.9186 51.3963L49.5433 47.6401ZM64.5 45C59.2483 45 54.2096 45.9315 49.5433 47.6401L50.9186 51.3963C55.1508 49.8466 59.7243 49 64.5 49V45ZM81.2335 48.3356C76.0798 46.186 70.4259 45 64.5 45V49C69.888 49 75.0192 50.0777 79.6938 52.0273L81.2335 48.3356ZM85 64.5C85 59.2288 84.0615 54.1723 82.3408 49.4914L78.5865 50.8715C80.1471 55.1169 81 59.7066 81 64.5H85ZM66.1339 100.357C77.525 92.5176 85 79.382 85 64.5H81C81 78.0101 74.2192 89.937 63.8661 97.0624L66.1339 100.357ZM45 64.5C45 79.382 52.475 92.5176 63.8661 100.357L66.1339 97.0624C55.7808 89.937 49 78.0101 49 64.5H45ZM51.0507 80.7722C55.2687 82.2163 59.793 83 64.5 83V79C60.2396 79 56.1529 78.2911 52.3464 76.9879L51.0507 80.7722ZM47 64.5C47 69.8303 48.0049 74.9262 49.8359 79.6084L53.5612 78.1516C51.9088 73.9262 51 69.3239 51 64.5H47ZM49.3851 50.5999C47.8406 54.9457 47 59.6248 47 64.5H51C51 60.0876 51.7604 55.8612 53.1542 51.9394L49.3851 50.5999ZM64.5 47C59.6248 47 54.9457 47.8406 50.5999 49.3851L51.9394 53.1542C55.8612 51.7604 60.0876 51 64.5 51V47ZM79.6084 49.8359C74.9262 48.0049 69.8303 47 64.5 47V51C69.3239 51 73.9262 51.9088 78.1516 53.5612L79.6084 49.8359ZM83 64.5C83 59.793 82.2163 55.2687 80.7722 51.0507L76.9879 52.3464C78.2911 56.1529 79 60.2396 79 64.5H83ZM80.3329 79.1692C82.0568 74.6082 83 69.6641 83 64.5H79C79 69.1736 78.1469 73.639 76.5913 77.755L80.3329 79.1692ZM64.5 83C69.6641 83 74.6082 82.0568 79.1692 80.3329L77.755 76.5913C73.639 78.1469 69.1736 79 64.5 79V83Z" fill="white" fill-opacity="0.6" mask="url(#path-21-inside-7_8016_33240)"/>
<mask id="path-23-inside-8_8016_33240" fill="white">
<path fill-rule="evenodd" clip-rule="evenodd" d="M64.5 83C78.696 83 91.2273 75.8721 98.71 65C91.2273 54.1279 78.696 47 64.5 47C59.2908 47 54.3058 47.9598 49.7121 49.7121C47.9598 54.3058 47 59.2908 47 64.5C47 70.1569 48.1319 75.5495 50.1815 80.4636C54.6446 82.1043 59.4677 83 64.5 83ZM64.5 81C60.0163 81 55.7108 80.2537 51.6986 78.88C49.9569 74.4262 49 69.5771 49 64.5C49 59.8562 49.8005 55.4035 51.2696 51.2696C55.4035 49.8005 59.8562 49 64.5 49C69.5771 49 74.4262 49.9569 78.88 51.6986C80.2537 55.7108 81 60.0163 81 64.5C81 69.4189 80.1018 74.1236 78.4621 78.4621C74.1236 80.1018 69.4189 81 64.5 81Z"/>
</mask>
<path fill-rule="evenodd" clip-rule="evenodd" d="M64.5 83C78.696 83 91.2273 75.8721 98.71 65C91.2273 54.1279 78.696 47 64.5 47C59.2908 47 54.3058 47.9598 49.7121 49.7121C47.9598 54.3058 47 59.2908 47 64.5C47 70.1569 48.1319 75.5495 50.1815 80.4636C54.6446 82.1043 59.4677 83 64.5 83ZM64.5 81C60.0163 81 55.7108 80.2537 51.6986 78.88C49.9569 74.4262 49 69.5771 49 64.5C49 59.8562 49.8005 55.4035 51.2696 51.2696C55.4035 49.8005 59.8562 49 64.5 49C69.5771 49 74.4262 49.9569 78.88 51.6986C80.2537 55.7108 81 60.0163 81 64.5C81 69.4189 80.1018 74.1236 78.4621 78.4621C74.1236 80.1018 69.4189 81 64.5 81Z" fill="#EC6B29" fill-opacity="0.5"/>
<path d="M98.71 65L100.357 66.1339L101.138 65L100.357 63.8661L98.71 65ZM49.7121 49.7121L48.9993 47.8435L48.1626 48.1626L47.8435 48.9993L49.7121 49.7121ZM50.1815 80.4636L48.3356 81.2335L48.6718 82.0395L49.4914 82.3408L50.1815 80.4636ZM51.6986 78.88L49.8359 79.6084L50.1736 80.4719L51.0507 80.7722L51.6986 78.88ZM51.2696 51.2696L50.5999 49.3851L49.7036 49.7036L49.3851 50.5999L51.2696 51.2696ZM78.88 51.6986L80.7722 51.0507L80.4719 50.1736L79.6084 49.8359L78.88 51.6986ZM78.4621 78.4621L79.1692 80.3329L80.0137 80.0137L80.3329 79.1692L78.4621 78.4621ZM97.0624 63.8661C89.937 74.2192 78.0101 81 64.5 81V85C79.382 85 92.5176 77.525 100.357 66.1339L97.0624 63.8661ZM64.5 49C78.0101 49 89.937 55.7808 97.0624 66.1339L100.357 63.8661C92.5176 52.475 79.382 45 64.5 45V49ZM50.425 51.5808C54.7946 49.9139 59.5382 49 64.5 49V45C59.0434 45 53.817 46.0056 48.9993 47.8435L50.425 51.5808ZM49 64.5C49 59.5382 49.9139 54.7946 51.5808 50.425L47.8435 48.9993C46.0056 53.817 45 59.0434 45 64.5H49ZM52.0273 79.6938C50.0777 75.0192 49 69.888 49 64.5H45C45 70.4259 46.186 76.0798 48.3356 81.2335L52.0273 79.6938ZM64.5 81C59.7066 81 55.1169 80.1471 50.8715 78.5865L49.4914 82.3408C54.1723 84.0615 59.2288 85 64.5 85V81ZM51.0507 80.7722C55.2687 82.2163 59.793 83 64.5 83V79C60.2396 79 56.1529 78.2911 52.3464 76.9879L51.0507 80.7722ZM47 64.5C47 69.8303 48.0049 74.9262 49.8359 79.6084L53.5612 78.1516C51.9088 73.9262 51 69.3239 51 64.5H47ZM49.3851 50.5999C47.8406 54.9457 47 59.6248 47 64.5H51C51 60.0876 51.7604 55.8612 53.1542 51.9394L49.3851 50.5999ZM64.5 47C59.6248 47 54.9457 47.8406 50.5999 49.3851L51.9394 53.1542C55.8612 51.7604 60.0876 51 64.5 51V47ZM79.6084 49.8359C74.9262 48.0049 69.8303 47 64.5 47V51C69.3239 51 73.9262 51.9088 78.1516 53.5612L79.6084 49.8359ZM83 64.5C83 59.793 82.2163 55.2687 80.7722 51.0507L76.9879 52.3464C78.2911 56.1529 79 60.2396 79 64.5H83ZM80.3329 79.1692C82.0568 74.6082 83 69.6641 83 64.5H79C79 69.1736 78.1469 73.639 76.5913 77.755L80.3329 79.1692ZM64.5 83C69.6641 83 74.6082 82.0568 79.1692 80.3329L77.755 76.5913C73.639 78.1469 69.1736 79 64.5 79V83Z" fill="white" fill-opacity="0.6" mask="url(#path-23-inside-8_8016_33240)"/>
<mask id="path-25-inside-9_8016_33240" fill="white">
<path fill-rule="evenodd" clip-rule="evenodd" d="M50.2309 80.4818L50.1815 80.4636C48.1319 75.5495 47 70.1569 47 64.5C47 50.304 54.1279 37.7727 65 30.29C75.8721 37.7727 83 50.304 83 64.5C83 69.9819 81.9371 75.2156 80.0061 80.0061C75.2156 81.9371 69.9819 83 64.5 83C59.4863 83 54.6802 82.1109 50.2309 80.4818ZM64.5 81C60.0163 81 55.7108 80.2537 51.6986 78.88C49.9569 74.4262 49 69.5771 49 64.5C49 59.8562 49.8005 55.4035 51.2696 51.2696C55.4035 49.8005 59.8562 49 64.5 49C69.5771 49 74.4262 49.9569 78.88 51.6986C80.2537 55.7108 81 60.0163 81 64.5C81 69.4189 80.1018 74.1236 78.4621 78.4621C74.1236 80.1018 69.4189 81 64.5 81Z"/>
</mask>
<path fill-rule="evenodd" clip-rule="evenodd" d="M50.2309 80.4818L50.1815 80.4636C48.1319 75.5495 47 70.1569 47 64.5C47 50.304 54.1279 37.7727 65 30.29C75.8721 37.7727 83 50.304 83 64.5C83 69.9819 81.9371 75.2156 80.0061 80.0061C75.2156 81.9371 69.9819 83 64.5 83C59.4863 83 54.6802 82.1109 50.2309 80.4818ZM64.5 81C60.0163 81 55.7108 80.2537 51.6986 78.88C49.9569 74.4262 49 69.5771 49 64.5C49 59.8562 49.8005 55.4035 51.2696 51.2696C55.4035 49.8005 59.8562 49 64.5 49C69.5771 49 74.4262 49.9569 78.88 51.6986C80.2537 55.7108 81 60.0163 81 64.5C81 69.4189 80.1018 74.1236 78.4621 78.4621C74.1236 80.1018 69.4189 81 64.5 81Z" fill="#EC6B29" fill-opacity="0.5"/>
<path d="M50.1815 80.4636L48.3356 81.2335L48.672 82.0402L49.4925 82.3412L50.1815 80.4636ZM50.2309 80.4818L49.542 82.3594L49.5433 82.3599L50.2309 80.4818ZM65 30.29L66.1339 28.6425L65 27.8621L63.8661 28.6425L65 30.29ZM80.0061 80.0061L80.7538 81.8611L81.543 81.543L81.8611 80.7538L80.0061 80.0061ZM51.6986 78.88L49.8359 79.6084L50.1736 80.4719L51.0507 80.7722L51.6986 78.88ZM51.2696 51.2696L50.5999 49.3851L49.7036 49.7036L49.3851 50.5999L51.2696 51.2696ZM78.88 51.6986L80.7722 51.0507L80.4719 50.1736L79.6084 49.8359L78.88 51.6986ZM78.4621 78.4621L79.1692 80.3329L80.0137 80.0137L80.3329 79.1692L78.4621 78.4621ZM49.4925 82.3412L49.542 82.3594L50.9198 78.6042L50.8704 78.5861L49.4925 82.3412ZM45 64.5C45 70.4259 46.186 76.0798 48.3356 81.2335L52.0273 79.6938C50.0777 75.0192 49 69.888 49 64.5H45ZM63.8661 28.6425C52.475 36.4824 45 49.618 45 64.5H49C49 50.9899 55.7808 39.063 66.1339 31.9375L63.8661 28.6425ZM85 64.5C85 49.618 77.525 36.4824 66.1339 28.6425L63.8661 31.9375C74.2192 39.063 81 50.9899 81 64.5H85ZM81.8611 80.7538C83.8862 75.7296 85 70.2424 85 64.5H81C81 69.7214 79.9879 74.7015 78.1512 79.2584L81.8611 80.7538ZM64.5 85C70.2424 85 75.7296 83.8862 80.7538 81.8611L79.2584 78.1512C74.7015 79.9879 69.7214 81 64.5 81V85ZM49.5433 82.3599C54.2096 84.0685 59.2483 85 64.5 85V81C59.7243 81 55.1508 80.1534 50.9186 78.6037L49.5433 82.3599ZM51.0507 80.7722C55.2687 82.2163 59.793 83 64.5 83V79C60.2396 79 56.1529 78.2911 52.3464 76.9879L51.0507 80.7722ZM47 64.5C47 69.8303 48.0049 74.9262 49.8359 79.6084L53.5612 78.1516C51.9088 73.9262 51 69.3239 51 64.5H47ZM49.3851 50.5999C47.8406 54.9457 47 59.6248 47 64.5H51C51 60.0876 51.7604 55.8612 53.1542 51.9394L49.3851 50.5999ZM64.5 47C59.6248 47 54.9457 47.8406 50.5999 49.3851L51.9394 53.1542C55.8612 51.7604 60.0876 51 64.5 51V47ZM79.6084 49.8359C74.9262 48.0049 69.8303 47 64.5 47V51C69.3239 51 73.9262 51.9088 78.1516 53.5612L79.6084 49.8359ZM83 64.5C83 59.793 82.2163 55.2687 80.7722 51.0507L76.9879 52.3464C78.2911 56.1529 79 60.2396 79 64.5H83ZM80.3329 79.1692C82.0568 74.6082 83 69.6641 83 64.5H79C79 69.1736 78.1469 73.639 76.5913 77.755L80.3329 79.1692ZM64.5 83C69.6641 83 74.6082 82.0568 79.1692 80.3329L77.755 76.5913C73.639 78.1469 69.1736 79 64.5 79V83Z" fill="white" fill-opacity="0.6" mask="url(#path-25-inside-9_8016_33240)"/>
<path fill-rule="evenodd" clip-rule="evenodd" d="M49.8399 79.6186C49.9525 79.9061 50.0681 80.1921 50.1868 80.4764C56.4445 95.4657 71.242 106 88.5 106C111.42 106 130 87.4198 130 64.5C130 41.5802 111.42 23 88.5 23C70.7944 23 55.6785 34.0879 49.7172 49.6988C49.6043 49.9946 49.4946 50.292 49.3883 50.591C49.3872 50.5939 49.3862 50.5969 49.3851 50.5999C47.8406 54.9457 47 59.6248 47 64.5C47 69.8303 48.0049 74.9262 49.8359 79.6084C49.8373 79.6118 49.8386 79.6152 49.8399 79.6186ZM51.2703 51.2694C51.2701 51.2695 51.2698 51.2695 51.2696 51.2696C49.9084 55.1 49.1211 59.2042 49.0129 63.4805C49.0043 63.8193 49 64.1591 49 64.5C49 65.031 49.0105 65.5597 49.0312 66.0856C49.2088 70.5873 50.1391 74.8921 51.6986 78.88C51.6988 78.8801 51.699 78.8802 51.6992 78.8802C55.7113 80.2538 60.0165 81 64.5 81C69.4189 81 74.1236 80.1018 78.4621 78.4621C80.1018 74.1236 81 69.4189 81 64.5C81 60.0163 80.2537 55.7108 78.88 51.6986C74.4262 49.9569 69.5771 49 64.5 49C59.8564 49 55.4039 49.8004 51.2703 51.2694ZM52.7461 81.312C56.4729 82.4106 60.4177 83 64.5 83C69.6641 83 74.6082 82.0568 79.1692 80.3329L80.0137 80.0137L80.3329 79.1692C82.0568 74.6082 83 69.6641 83 64.5C83 59.793 82.2163 55.2687 80.7722 51.0507L80.4719 50.1736L79.6084 49.8359C74.9262 48.0049 69.8303 47 64.5 47C60.2263 47 56.1033 47.646 52.2234 48.8458C58.2852 34.8173 72.2461 25 88.5 25C110.315 25 128 42.6848 128 64.5C128 86.3152 110.315 104 88.5 104C72.6971 104 59.0616 94.7199 52.7461 81.312Z" fill="white" fill-opacity="0.6"/>
<path fill-rule="evenodd" clip-rule="evenodd" d="M50.1736 80.4719L49.8359 79.6084C48.0049 74.9262 47 69.8303 47 64.5C47 60.2263 47.646 56.1033 48.8458 52.2234C34.8173 58.2852 25 72.2461 25 88.5C25 110.315 42.6848 128 64.5 128C86.3152 128 104 110.315 104 88.5C104 72.6971 94.7199 59.0616 81.312 52.7461C82.4106 56.4729 83 60.4177 83 64.5C83 69.6641 82.0568 74.6082 80.3329 79.1692L80.0137 80.0137L79.1692 80.3329C74.6082 82.0568 69.6641 83 64.5 83C59.793 83 55.2687 82.2163 51.0507 80.7722L50.1736 80.4719ZM78.8802 51.6992C78.8802 51.699 78.8801 51.6988 78.88 51.6986C74.7252 50.0738 70.2265 49.132 65.5195 49.0129C65.1807 49.0043 64.8409 49 64.5 49C63.9887 49 63.4797 49.0097 62.9731 49.029C58.8795 49.1844 54.9483 49.9623 51.2696 51.2696C51.2695 51.2698 51.2695 51.2701 51.2694 51.2703C49.8004 55.4039 49 59.8564 49 64.5C49 69.5771 49.9569 74.4262 51.6986 78.88C55.7108 80.2537 60.0163 81 64.5 81C69.4189 81 74.1236 80.1018 78.4621 78.4621C80.1018 74.1236 81 69.4189 81 64.5C81 60.0165 80.2538 55.7113 78.8802 51.6992ZM80.4764 50.1868C95.4657 56.4445 106 71.242 106 88.5C106 111.42 87.4198 130 64.5 130C41.5802 130 23 111.42 23 88.5C23 70.7944 34.0879 55.6785 49.6988 49.7172C49.9958 49.6038 50.2944 49.4937 50.5947 49.387C50.5964 49.3863 50.5981 49.3857 50.5999 49.3851C54.9457 47.8406 59.6248 47 64.5 47C69.8303 47 74.9262 48.0049 79.6084 49.8359C79.6133 49.8378 79.6181 49.8397 79.623 49.8416C79.909 49.9536 80.1935 50.0687 80.4764 50.1868Z" fill="white" fill-opacity="0.6"/>
<path fill-rule="evenodd" clip-rule="evenodd" d="M51.6983 78.8794C51.6984 78.8796 51.6985 78.8798 51.6986 78.88C55.1007 80.0448 58.7136 80.7585 62.4673 80.9486C63.1406 80.9827 63.8183 81 64.5 81C65.289 81 66.0727 80.9769 66.8503 80.9312C70.919 80.6927 74.8196 79.8388 78.4621 78.4621C78.4622 78.4619 78.4623 78.4617 78.4624 78.4614C80.1019 74.1231 81 69.4186 81 64.5C81 60.0163 80.2537 55.7108 78.88 51.6986C74.4262 49.9569 69.5771 49 64.5 49C59.8562 49 55.4035 49.8005 51.2696 51.2696C49.8005 55.4035 49 59.8562 49 64.5C49 69.5769 49.9568 74.4257 51.6983 78.8794ZM80.9484 77.4229C82.28 73.3557 83 69.0118 83 64.5C83 59.793 82.2163 55.2687 80.7722 51.0507L80.4719 50.1736L79.6084 49.8359C74.9262 48.0049 69.8303 47 64.5 47C59.6248 47 54.9457 47.8406 50.5999 49.3851L49.7036 49.7036L49.3851 50.5999C47.8406 54.9457 47 59.6248 47 64.5C47 69.2027 47.7822 73.723 49.2238 77.9376C34.994 71.9648 25 57.8995 25 41.5C25 19.6848 42.6848 2 64.5 2C86.3152 2 104 19.6848 104 41.5C104 57.4454 94.5518 71.184 80.9484 77.4229ZM80.0185 80.0012C95.2507 73.8557 106 58.9332 106 41.5C106 18.5802 87.4198 0 64.5 0C41.5802 0 23 18.5802 23 41.5C23 59.3827 34.3108 74.6236 50.1685 80.4589C50.4544 80.5641 50.7417 80.6662 51.0305 80.7653C51.0372 80.7676 51.044 80.7699 51.0507 80.7722C55.2687 82.2163 59.793 83 64.5 83C69.6641 83 74.6082 82.0568 79.1692 80.3329C79.4538 80.2254 79.7369 80.1148 80.0185 80.0012Z" fill="white" fill-opacity="0.6"/>
<path fill-rule="evenodd" clip-rule="evenodd" d="M50.1736 80.4719L49.8359 79.6084C48.0049 74.9262 47 69.8303 47 64.5C47 59.6248 47.8406 54.9457 49.3851 50.5999L49.7036 49.7036L50.5999 49.3851C54.9457 47.8406 59.6248 47 64.5 47C69.2027 47 73.723 47.7822 77.9376 49.2238C71.9648 34.994 57.8995 25 41.5 25C19.6848 25 2 42.6848 2 64.5C2 86.3152 19.6848 104 41.5 104C57.4454 104 71.184 94.5518 77.4229 80.9484C73.3557 82.28 69.0118 83 64.5 83C59.793 83 55.2687 82.2163 51.0507 80.7722L50.1736 80.4719ZM78.4614 78.4624C78.4616 78.4623 78.4619 78.4622 78.4621 78.4621C79.8745 74.725 80.7367 70.7161 80.9486 66.5327C80.9827 65.8594 81 65.1817 81 64.5C81 63.711 80.9769 62.9273 80.9312 62.1497C80.7178 58.5098 80.0119 55.0046 78.88 51.6986C78.8798 51.6985 78.8796 51.6984 78.8794 51.6983C74.4257 49.9568 69.5769 49 64.5 49C59.8562 49 55.4035 49.8005 51.2696 51.2696C49.8005 55.4035 49 59.8562 49 64.5C49 69.5771 49.9569 74.4262 51.6986 78.88C55.7108 80.2537 60.0163 81 64.5 81C69.4186 81 74.1231 80.1019 78.4614 78.4624ZM80.0012 80.0185C73.8557 95.2507 58.9332 106 41.5 106C18.5802 106 0 87.4198 0 64.5C0 41.5802 18.5802 23 41.5 23C59.3827 23 74.6236 34.3108 80.4589 50.1685C80.5638 50.4537 80.6657 50.7403 80.7645 51.0284C80.7671 51.0358 80.7696 51.0433 80.7722 51.0507C82.2163 55.2687 83 59.793 83 64.5C83 69.6641 82.0568 74.6082 80.3329 79.1692C80.3311 79.1741 80.3292 79.179 80.3274 79.1839C80.2215 79.4636 80.1128 79.7418 80.0012 80.0185Z" fill="white" fill-opacity="0.6"/>
</svg>
